<?xml version="1.0" encoding="utf-8"?>
<!-- Generator: Adobe Illustrator 15.0.2, SVG Export Plug-In . SVG Version: 6.00 Build 0)  -->
<!DOCTYPE svg PUBLIC "-//W3C//DTD SVG 1.1//EN" "http://www.w3.org/Graphics/SVG/1.1/DTD/svg11.dtd">
<svg version="1.1" id="Layer_1" xmlns="http://www.w3.org/2000/svg" xmlns:xlink="http://www.w3.org/1999/xlink" x="0px" y="0px"
	 width="612px" height="792px" viewBox="0 0 612 792" enable-background="new 0 0 612 792" xml:space="preserve">
<circle opacity="0.17" fill="#1C75BC" stroke="#1C75BC" stroke-miterlimit="10" cx="232.888" cy="390.4" r="117"/>
<ellipse fill="#594A42" stroke="#594A42" stroke-miterlimit="10" cx="32.863" cy="397.867" rx="11.1" ry="11.199"/>
<circle opacity="0.99" fill="#594A42" stroke="#594A42" stroke-miterlimit="10" cx="232.888" cy="390.134" r="22.6"/>
<circle fill="#BE1E2D" stroke="#BE1E2D" stroke-miterlimit="10" cx="31.822" cy="362.667" r="3.6"/>
<circle opacity="0.17" fill="#1C75BC" stroke="#1C75BC" stroke-miterlimit="10" cx="459.155" cy="389.334" r="137.6"/>
<circle fill="#594A42" stroke="#594A42" stroke-miterlimit="10" cx="458.889" cy="389.601" r="22.6"/>
<circle fill="#8DC63F" stroke="#8DC63F" stroke-miterlimit="10" cx="532.622" cy="390.8" r="7"/>
<rect x="492.289" y="388.2" fill="#F7941E" stroke="#F7941E" stroke-miterlimit="10" width="10" height="5.2"/>
<rect x="512.689" y="388.601" fill="#F7941E" stroke="#F7941E" stroke-miterlimit="10" width="10" height="5.2"/>
<rect x="481.289" y="385.601" fill="#F7941E" stroke="#F7941E" stroke-miterlimit="10" width="10.4" height="10.4"/>
<rect x="482.889" y="387.601" opacity="0.33" fill="#1C75BC" stroke="#F7941E" stroke-miterlimit="10" width="6.4" height="6.4"/>
<rect x="502.489" y="389.601" fill="#F7941E" stroke="#F7941E" stroke-miterlimit="10" width="9.601" height="2.4"/>
<rect x="523.289" y="386.4" fill="#F7941E" stroke="#F7941E" stroke-miterlimit="10" width="2.4" height="10.4"/>
<rect x="480.489" y="375.601" transform="matrix(0.7071 -0.7071 0.7071 0.7071 -128.1829 452.1397)" fill="#F7941E" stroke="#F7941E" stroke-miterlimit="10" width="2.4" height="10.399"/>
<rect x="480.89" y="395.201" transform="matrix(-0.7069 -0.7073 0.7073 -0.7069 539.6735 1024.4319)" fill="#F7941E" stroke="#F7941E" stroke-miterlimit="10" width="2.4" height="10.399"/>
<rect x="31.822" y="372.134" fill="#F7941E" stroke="#F7941E" stroke-miterlimit="10" width="2.133" height="14.133"/>
<path fill="#F7941E" d="M28.603,364.271"/>
<rect x="33.822" y="362.667" transform="matrix(0.9848 0.1735 -0.1735 0.9848 64.3673 -0.4963)" fill="#F7941E" stroke="#F7941E" stroke-miterlimit="10" width="2.4" height="10.4"/>
<rect x="29.488" y="362.801" transform="matrix(-0.9848 0.1736 -0.1736 -0.9848 124.7812 725.0898)" fill="#F7941E" stroke="#F7941E" stroke-miterlimit="10" width="2.4" height="10.4"/>
<line fill="none" stroke="#000000" stroke-miterlimit="10" x1="31.822" y1="391" x2="554.5" y2="391"/>
<line fill="none" stroke="#000000" stroke-miterlimit="10" x1="31.822" y1="391" x2="31.822" y2="254"/>
<polygon stroke="#000000" stroke-miterlimit="10" points="27.492,256.5 31.822,249 36.152,256.5 "/>
<polygon stroke="#000000" stroke-miterlimit="10" points="552.367,395.208 552.367,386.547 559.866,390.878 "/>
<rect x="213.657" y="371.417" fill="none" width="33.312" height="31.434"/>
<text transform="matrix(1 0 0 1 220.9766 386.0112)" fill="#FFFFFF" font-family="'TimesNewRomanPSMT'" font-size="21">M</text>
<rect x="439.656" y="371.417" fill="none" width="33.312" height="31.434"/>
<text transform="matrix(1 0 0 1 446.9766 386.0112)" fill="#FFFFFF" font-family="'TimesNewRomanPSMT'" font-size="21">M</text>
<line fill="none" x1="235.75" y1="371.417" x2="450.25" y2="370.417"/>
<rect x="225.656" y="380.417" fill="none" width="33.312" height="31.434"/>
<text transform="matrix(1 0 0 1 238.813 390.1465)" fill="#FFFFFF" font-family="'TimesNewRomanPSMT'" font-size="14">1</text>
<rect x="451.656" y="380.417" fill="none" width="33.312" height="31.434"/>
<text transform="matrix(1 0 0 1 464.8125 390.1465)" fill="#FFFFFF" font-family="'TimesNewRomanPSMT'" font-size="14">2</text>
<line fill="none" stroke="#000000" stroke-miterlimit="10" x1="38.106" y1="358.667" x2="51.666" y2="352"/>
<polygon stroke="#000000" stroke-miterlimit="10" points="50.698,355.221 48.502,350.511 53.678,350.964 "/>
<g>
	
		<rect x="31" y="343.334" transform="matrix(0.866 -0.5 0.5 0.866 -171.0122 68.7771)" fill="none" width="23.667" height="20.333"/>
	<text transform="matrix(0.866 -0.5 0.5 0.866 39.6201 354.9092)" font-family="'TimesNewRomanPSMT'" font-size="14">v</text>
	
		<line fill="none" stroke="#000000" stroke-width="0.5" stroke-miterlimit="10" x1="36.668" y1="347.821" x2="41.287" y2="345.155"/>
	
		<line fill="none" stroke="#000000" stroke-width="0.5" stroke-miterlimit="10" x1="41.287" y1="345.155" x2="37.895" y2="344.612"/>
</g>
<g>
	<g>
		<line fill="none" stroke="#000000" stroke-width="0.5" stroke-miterlimit="10" x1="46.75" y1="354.5" x2="47.653" y2="354.071"/>
		
			<line fill="none" stroke="#000000" stroke-width="0.5" stroke-miterlimit="10" stroke-dasharray="1.9645,1.9645" x1="49.427" y1="353.228" x2="115.96" y2="321.601"/>
		
			<line fill="none" stroke="#000000" stroke-width="0.5" stroke-miterlimit="10" x1="116.847" y1="321.179" x2="117.75" y2="320.75"/>
	</g>
</g>
<g>
	<g>
		<path fill="none" stroke="#000000" stroke-width="0.5" stroke-miterlimit="10" stroke-dasharray="2,2" d="M58.127,345.878
			c-1.832-10.255-12.902-18.128-26.305-18.128"/>
		<g>
			<path d="M58.394,348.884c0.373-1.468,1.08-3.315,1.911-4.502l-2.273,1.108l-2.456-0.603
				C56.638,345.872,57.719,347.528,58.394,348.884z"/>
		</g>
	</g>
</g>
<rect x="42.75" y="321.25" fill="none" width="14.75" height="14.75"/>
<text transform="matrix(1 0 0 1 46.625 330.98)" font-family="'TimesNewRomanPSMT'" font-size="14">o</text>
<line fill="none" stroke="#000000" stroke-width="0.75" stroke-miterlimit="10" x1="47.502" y1="327.75" x2="52.167" y2="327.75"/>
<rect x="11.333" y="259" fill="none" width="16.667" height="18.333"/>
<text transform="matrix(1 0 0 1 12.2188 268.73)" font-family="'TimesNewRomanPSMT'" font-size="14">+y</text>
<rect x="532.667" y="397.333" fill="none" width="22.333" height="17.667"/>
<text transform="matrix(1 0 0 1 536.3857 407.0625)" font-family="'TimesNewRomanPSMT'" font-size="14">+x</text>
<rect x="8.75" y="366.25" fill="none" width="14" height="13.75"/>
<text transform="matrix(1 0 0 1 12.25 375.98)" font-family="'TimesNewRomanPSMT'" font-size="14">y</text>
<rect x="13.188" y="374.25" fill="none" width="12.5" height="11.5"/>
<text transform="matrix(1 0 0 1 17.9375 378.4199)" font-family="'TimesNewRomanPSMT'" font-size="6">0</text>
<rect x="41.553" y="348.618" transform="matrix(0.866 -0.5 0.5 0.866 -170.5678 70.9948)" fill="none" width="11.295" height="10.356"/>
<text transform="matrix(0.866 -0.5 0.5 0.866 45.4326 353.71)" font-family="'TimesNewRomanPSMT'" font-size="6">0</text>
<line fill="none" stroke="#000000" stroke-miterlimit="10" x1="24.25" y1="362.538" x2="24.25" y2="390.4"/>
<line fill="none" stroke="#000000" stroke-miterlimit="10" x1="21.763" y1="390.667" x2="26.5" y2="390.667"/>
<line fill="none" stroke="#000000" stroke-miterlimit="10" x1="21.881" y1="362.538" x2="26.619" y2="362.538"/>
<g>
	
		<line fill="none" stroke="#000000" stroke-width="0.5" stroke-miterlimit="10" x1="13.084" y1="368.617" x2="18.417" y2="368.616"/>
	<line fill="none" stroke="#000000" stroke-width="0.5" stroke-miterlimit="10" x1="18.417" y1="368.616" x2="15.751" y2="366.45"/>
</g>
<rect x="69" y="286.25" fill="none" width="21.25" height="21.5"/>
<text transform="matrix(1 0 0 1 75.6289 302.9297)" font-family="'TimesNewRomanPSMT'" font-size="24">I</text>
<rect x="222.264" y="286.25" fill="none" width="21.25" height="21.5"/>
<text transform="matrix(1 0 0 1 224.8965 302.9297)" font-family="'TimesNewRomanPSMT'" font-size="24">II</text>
<rect x="443.029" y="286.25" fill="none" width="32.25" height="21.5"/>
<text transform="matrix(1 0 0 1 447.166 302.9297)" font-family="'TimesNewRomanPSMT'" font-size="24">III</text>
<rect x="322.555" y="369.667" fill="none" width="26" height="21.5"/>
<text transform="matrix(1 0 0 1 322.8926 386.3462)" font-family="'TimesNewRomanPSMT'" font-size="24">IV</text>
</svg>
